<svg width="960" height="480" xmlns="http://www.w3.org/2000/svg" xmlns:xlink="http://www.w3.org/1999/xlink" version="1.1" baseProfile="full" viewBox="0 0 960 480">
<rect width="960" height="480" x="0" y="0" fill="none"></rect>
<path d="M80 416.5L880 416.5" fill="none" pointer-events="visible" stroke="#E0E6F1" class="zr2-cls-22"></path>
<path d="M80 362.5L880 362.5" fill="none" pointer-events="visible" stroke="#E0E6F1" class="zr2-cls-22"></path>
<path d="M80 309.5L880 309.5" fill="none" pointer-events="visible" stroke="#E0E6F1" class="zr2-cls-22"></path>
<path d="M80 256.5L880 256.5" fill="none" pointer-events="visible" stroke="#E0E6F1" class="zr2-cls-22"></path>
<path d="M80 202.5L880 202.5" fill="none" pointer-events="visible" stroke="#E0E6F1" class="zr2-cls-22"></path>
<path d="M80 149.5L880 149.5" fill="none" pointer-events="visible" stroke="#E0E6F1" class="zr2-cls-22"></path>
<path d="M80 96.5L880 96.5" fill="none" pointer-events="visible" stroke="#E0E6F1" class="zr2-cls-22"></path>
<path d="M80 416.5L880 416.5" fill="none" pointer-events="visible" stroke="#E0E6F1" class="zr2-cls-22"></path>
<path d="M80 362.5L880 362.5" fill="none" pointer-events="visible" stroke="#E0E6F1" class="zr2-cls-22"></path>
<path d="M80 309.5L880 309.5" fill="none" pointer-events="visible" stroke="#E0E6F1" class="zr2-cls-22"></path>
<path d="M80 256.5L880 256.5" fill="none" pointer-events="visible" stroke="#E0E6F1" class="zr2-cls-22"></path>
<path d="M80 202.5L880 202.5" fill="none" pointer-events="visible" stroke="#E0E6F1" class="zr2-cls-22"></path>
<path d="M80 149.5L880 149.5" fill="none" pointer-events="visible" stroke="#E0E6F1" class="zr2-cls-22"></path>
<path d="M80 96.5L880 96.5" fill="none" pointer-events="visible" stroke="#E0E6F1" class="zr2-cls-22"></path>
<text dominant-baseline="central" text-anchor="middle" style="font-size:12px;font-family:Inter, -apple-system, BlinkMacSystemFont, 'Segoe UI', Roboto, sans-serif;" xml:space="preserve" y="-6" transform="translate(80 81)" fill="#57606a">Bytes per decision</text>
<text dominant-baseline="central" text-anchor="middle" style="font-size:12px;font-family:Inter, -apple-system, BlinkMacSystemFont, 'Segoe UI', Roboto, sans-serif;" xml:space="preserve" y="-6" transform="translate(880 81)" fill="#57606a">ms per round-trip</text>
<path d="M80 416.5L880 416.5" fill="none" pointer-events="visible" stroke="#6E7079" stroke-linecap="round" class="zr2-cls-22"></path>
<path d="M80.5 416L80.5 421" fill="none" pointer-events="visible" stroke="#6E7079" class="zr2-cls-22"></path>
<path d="M480.5 416L480.5 421" fill="none" pointer-events="visible" stroke="#6E7079" class="zr2-cls-22"></path>
<path d="M880.5 416L880.5 421" fill="none" pointer-events="visible" stroke="#6E7079" class="zr2-cls-22"></path>
<text dominant-baseline="central" text-anchor="end" style="font-size:12px;font-family:Inter, -apple-system, BlinkMacSystemFont, 'Segoe UI', Roboto, sans-serif;" transform="translate(72 416)" fill="#57606a">0</text>
<text dominant-baseline="central" text-anchor="end" style="font-size:12px;font-family:Inter, -apple-system, BlinkMacSystemFont, 'Segoe UI', Roboto, sans-serif;" transform="translate(72 362.6667)" fill="#57606a">100</text>
<text dominant-baseline="central" text-anchor="end" style="font-size:12px;font-family:Inter, -apple-system, BlinkMacSystemFont, 'Segoe UI', Roboto, sans-serif;" transform="translate(72 309.3333)" fill="#57606a">200</text>
<text dominant-baseline="central" text-anchor="end" style="font-size:12px;font-family:Inter, -apple-system, BlinkMacSystemFont, 'Segoe UI', Roboto, sans-serif;" transform="translate(72 256)" fill="#57606a">300</text>
<text dominant-baseline="central" text-anchor="end" style="font-size:12px;font-family:Inter, -apple-system, BlinkMacSystemFont, 'Segoe UI', Roboto, sans-serif;" transform="translate(72 202.6667)" fill="#57606a">400</text>
<text dominant-baseline="central" text-anchor="end" style="font-size:12px;font-family:Inter, -apple-system, BlinkMacSystemFont, 'Segoe UI', Roboto, sans-serif;" transform="translate(72 149.3333)" fill="#57606a">500</text>
<text dominant-baseline="central" text-anchor="end" style="font-size:12px;font-family:Inter, -apple-system, BlinkMacSystemFont, 'Segoe UI', Roboto, sans-serif;" transform="translate(72 96)" fill="#57606a">600</text>
<text dominant-baseline="central" text-anchor="start" style="font-size:12px;font-family:Inter, -apple-system, BlinkMacSystemFont, 'Segoe UI', Roboto, sans-serif;" transform="translate(888 416)" fill="#57606a">0</text>
<text dominant-baseline="central" text-anchor="start" style="font-size:12px;font-family:Inter, -apple-system, BlinkMacSystemFont, 'Segoe UI', Roboto, sans-serif;" transform="translate(888 362.6667)" fill="#57606a">30</text>
<text dominant-baseline="central" text-anchor="start" style="font-size:12px;font-family:Inter, -apple-system, BlinkMacSystemFont, 'Segoe UI', Roboto, sans-serif;" transform="translate(888 309.3333)" fill="#57606a">60</text>
<text dominant-baseline="central" text-anchor="start" style="font-size:12px;font-family:Inter, -apple-system, BlinkMacSystemFont, 'Segoe UI', Roboto, sans-serif;" transform="translate(888 256)" fill="#57606a">90</text>
<text dominant-baseline="central" text-anchor="start" style="font-size:12px;font-family:Inter, -apple-system, BlinkMacSystemFont, 'Segoe UI', Roboto, sans-serif;" transform="translate(888 202.6667)" fill="#57606a">120</text>
<text dominant-baseline="central" text-anchor="start" style="font-size:12px;font-family:Inter, -apple-system, BlinkMacSystemFont, 'Segoe UI', Roboto, sans-serif;" transform="translate(888 149.3333)" fill="#57606a">150</text>
<text dominant-baseline="central" text-anchor="start" style="font-size:12px;font-family:Inter, -apple-system, BlinkMacSystemFont, 'Segoe UI', Roboto, sans-serif;" transform="translate(888 96)" fill="#57606a">180</text>
<text dominant-baseline="central" text-anchor="end" style="font-size:12px;font-family:Inter, -apple-system, BlinkMacSystemFont, 'Segoe UI', Roboto, sans-serif;" transform="matrix(0.966,-0.259,0.259,0.966,280,424)" fill="#57606a">dpm_checkpoints</text>
<text dominant-baseline="central" text-anchor="end" style="font-size:12px;font-family:Inter, -apple-system, BlinkMacSystemFont, 'Segoe UI', Roboto, sans-serif;" transform="matrix(0.966,-0.259,0.259,0.966,680,424)" fill="#57606a">dpm_checkpoints_prefix_cached</text>
<path d="M244.8 416l32 0l0 -269.3l-32 0Z" fill="#228833" ecmeta_series_index="0" ecmeta_data_index="0" ecmeta_ssr_type="chart" class="zr2-cls-23 zr2-cls-24"></path>
<path d="M644.8 416l32 0l0 -269.3l-32 0Z" fill="#228833" ecmeta_series_index="0" ecmeta_data_index="1" ecmeta_ssr_type="chart" class="zr2-cls-25 zr2-cls-24"></path>
<path d="M283.2 416l32 0l0 0l-32 0Z" fill="#88bb44" ecmeta_series_index="1" ecmeta_data_index="0" ecmeta_ssr_type="chart" class="zr2-cls-26"></path>
<path d="M683.2 416l32 0l0 -269.3l-32 0Z" fill="#88bb44" ecmeta_series_index="1" ecmeta_data_index="1" ecmeta_ssr_type="chart" class="zr2-cls-27 zr2-cls-26"></path>
<g clip-path="url(#zr2-c0)">
<path d="M280 123.7L680 161.8" fill="none" pointer-events="visible" stroke="#aa3377" stroke-width="2" stroke-linejoin="bevel" class="zr2-cls-30"></path>
</g>
<g clip-path="url(#zr2-c1)">
<path d="M280 416L680 192" fill="none" pointer-events="visible" stroke="#ee7733" stroke-width="2" stroke-linejoin="bevel" class="zr2-cls-30"></path>
</g>
<path d="M1 0A1 1 0 1 1 1 -0.1A1 1 0 0 1 1 0" transform="matrix(4,0,0,4,280,123.7333)" fill="#aa3377" ecmeta_series_index="2" ecmeta_data_index="0" ecmeta_ssr_type="chart" class="zr2-cls-32"></path>
<path d="M1 0A1 1 0 1 1 1 -0.1A1 1 0 0 1 1 0" transform="matrix(4,0,0,4,680,161.7778)" fill="#aa3377" ecmeta_series_index="2" ecmeta_data_index="1" ecmeta_ssr_type="chart" class="zr2-cls-32"></path>
<path d="M0 -1L1 0L0 1L-1 0Z" transform="matrix(4,0,0,4,280,416)" fill="#ee7733" ecmeta_series_index="3" ecmeta_data_index="0" ecmeta_ssr_type="chart" class="zr2-cls-33"></path>
<path d="M0 -1L1 0L0 1L-1 0Z" transform="matrix(4,0,0,4,680,192)" fill="#ee7733" ecmeta_series_index="3" ecmeta_data_index="1" ecmeta_ssr_type="chart" class="zr2-cls-33"></path>
<path d="M-5 -5.5l647.8 0l0 25l-647.8 0Z" transform="translate(161.12 61.5)" fill="rgb(0,0,0)" fill-opacity="0" stroke="#ccc" stroke-width="0" class="zr2-cls-22"></path>
<path d="M3.5 0L21.5 0A3.5 3.5 0 0 1 25 3.5L25 10.5A3.5 3.5 0 0 1 21.5 14L3.5 14A3.5 3.5 0 0 1 0 10.5L0 3.5A3.5 3.5 0 0 1 3.5 0" transform="translate(161.12 61.5)" fill="#228833" ecmeta_series_index="0" ecmeta_data_index="0" ecmeta_ssr_type="legend" ecmeta_silent="true" class="zr2-cls-22"></path>
<text dominant-baseline="central" text-anchor="start" style="font-size:12px;font-family:Inter, -apple-system, BlinkMacSystemFont, 'Segoe UI', Roboto, sans-serif;" xml:space="preserve" x="30" y="7" transform="translate(161.12 61.5)" fill="#57606a">Uploaded (bytes)</text>
<path d="M0 0l121.7 0l0 14l-121.7 0Z" transform="translate(161.12 61.5)" fill="none" pointer-events="visible" ecmeta_series_index="0" ecmeta_data_index="0" ecmeta_ssr_type="legend" class="zr2-cls-34"></path>
<path d="M3.5 0L21.5 0A3.5 3.5 0 0 1 25 3.5L25 10.5A3.5 3.5 0 0 1 21.5 14L3.5 14A3.5 3.5 0 0 1 0 10.5L0 3.5A3.5 3.5 0 0 1 3.5 0" transform="translate(292.8 61.5)" fill="#88bb44" ecmeta_series_index="1" ecmeta_data_index="1" ecmeta_ssr_type="legend" ecmeta_silent="true" class="zr2-cls-22"></path>
<text dominant-baseline="central" text-anchor="start" style="font-size:12px;font-family:Inter, -apple-system, BlinkMacSystemFont, 'Segoe UI', Roboto, sans-serif;" xml:space="preserve" x="30" y="7" transform="translate(292.8 61.5)" fill="#57606a">Downloaded on thaw (bytes)</text>
<path d="M0 0l182.6 0l0 14l-182.6 0Z" transform="translate(292.8 61.5)" fill="none" pointer-events="visible" ecmeta_series_index="1" ecmeta_data_index="1" ecmeta_ssr_type="legend" class="zr2-cls-34"></path>
<path d="M0 7L25 7" transform="translate(486.44 61.5)" fill="#000" stroke="#aa3377" stroke-width="2" stroke-linecap="butt" stroke-miterlimit="10" class="zr2-cls-22"></path>
<path d="M18.1 7A5.6 5.6 0 1 1 18.1 6.4A5.6 5.6 0 0 1 18.1 7" transform="translate(486.44 61.5)" fill="#aa3377" class="zr2-cls-22"></path>
<text dominant-baseline="central" text-anchor="start" style="font-size:12px;font-family:Inter, -apple-system, BlinkMacSystemFont, 'Segoe UI', Roboto, sans-serif;" xml:space="preserve" x="30" y="7" transform="translate(486.44 61.5)" fill="#57606a">Checkpoint Put (ms)</text>
<path d="M-1 1l140 0l0 12l-140 0Z" transform="translate(486.44 61.5)" fill="none" pointer-events="visible" ecmeta_series_index="2" ecmeta_data_index="2" ecmeta_ssr_type="legend" class="zr2-cls-34"></path>
<path d="M0 7L25 7" transform="translate(636.4 61.5)" fill="#000" stroke="#ee7733" stroke-width="2" stroke-linecap="butt" stroke-miterlimit="10" class="zr2-cls-22"></path>
<path d="M12.5 1.4L18.1 7L12.5 12.6L6.9 7Z" transform="translate(636.4 61.5)" fill="#ee7733" class="zr2-cls-22"></path>
<text dominant-baseline="central" text-anchor="start" style="font-size:12px;font-family:Inter, -apple-system, BlinkMacSystemFont, 'Segoe UI', Roboto, sans-serif;" xml:space="preserve" x="30" y="7" transform="translate(636.4 61.5)" fill="#57606a">Thaw / cold handoff (ms)</text>
<path d="M-1 1l163.5 0l0 12l-163.5 0Z" transform="translate(636.4 61.5)" fill="none" pointer-events="visible" ecmeta_series_index="3" ecmeta_data_index="3" ecmeta_ssr_type="legend" class="zr2-cls-34"></path>
<path d="M-5 -5l474.9 0l0 47l-474.9 0Z" transform="translate(21 17)" fill="rgb(0,0,0)" fill-opacity="0" stroke="#ccc" stroke-width="0" class="zr2-cls-22"></path>
<text dominant-baseline="central" text-anchor="start" style="font-size:16px;font-family:Inter, -apple-system, BlinkMacSystemFont, 'Segoe UI', Roboto, sans-serif;font-weight:600;" xml:space="preserve" y="8" transform="translate(21 17)" fill="#1f2328">Chart F — Audit-trail and handoff economics</text>
<text dominant-baseline="central" text-anchor="start" style="font-size:11px;font-family:Inter, -apple-system, BlinkMacSystemFont, 'Segoe UI', Roboto, sans-serif;font-style:italic;" xml:space="preserve" y="31.5" transform="translate(21 17)" fill="#6e7781">S3 endpoint: dpm-cliff-bench--eun1-az1--x-s3.s3express-eun1-az1.eu-north-1.amazonaws.com</text>
<defs >
<clipPath id="zr2-c0">
<path d="M79 95l802 0l0 322l-802 0Z" fill="#000" class="zr2-cls-28 zr2-cls-29"></path>
</clipPath>
<clipPath id="zr2-c1">
<path d="M79 95l802 0l0 322l-802 0Z" fill="#000" class="zr2-cls-31 zr2-cls-29"></path>
</clipPath>
</defs>
<style ><![CDATA[
.zr2-cls-22:hover {
pointer-events:none;
}
.zr2-cls-23 {
animation:zr2-ani-0 0.8s cubic-bezier(0.65,0,0.35,1) both;
}
.zr2-cls-24:hover {
cursor:pointer;
fill:rgba(37,149,56,1);
}
.zr2-cls-25 {
animation:zr2-ani-1 0.8s cubic-bezier(0.65,0,0.35,1) both;
}
.zr2-cls-26:hover {
cursor:pointer;
fill:rgba(149,205,74,1);
}
.zr2-cls-27 {
animation:zr2-ani-2 0.8s cubic-bezier(0.65,0,0.35,1) both;
}
.zr2-cls-28 {
animation:zr2-ani-3 0.8s linear both;
}
.zr2-cls-29:hover {
cursor:pointer;
fill:rgba(0,0,0,1);
}
.zr2-cls-30:hover {
cursor:pointer;
}
.zr2-cls-31 {
animation:zr2-ani-4 0.8s linear both;
}
.zr2-cls-32:hover {
cursor:pointer;
fill:rgba(187,56,130,1);
}
.zr2-cls-33:hover {
cursor:pointer;
fill:rgba(255,130,56,1);
}
.zr2-cls-34:hover {
cursor:pointer;
fill:rgba(0,0,0,0);
}
@keyframes zr2-ani-0 {
0% {
d:path("M244.8 416l32 0l0 0l-32 0Z");
}
100% {
d:path("M244.8 416l32 0l0 -269.3l-32 0Z");
}
}
@keyframes zr2-ani-1 {
0% {
d:path("M644.8 416l32 0l0 0l-32 0Z");
}
100% {
d:path("M644.8 416l32 0l0 -269.3l-32 0Z");
}
}
@keyframes zr2-ani-2 {
0% {
d:path("M683.2 416l32 0l0 0l-32 0Z");
}
100% {
d:path("M683.2 416l32 0l0 -269.3l-32 0Z");
}
}
@keyframes zr2-ani-3 {
0% {
d:path("M79 95l0 0l0 322l0 0Z");
}
100% {
d:path("M79 95l802 0l0 322l-802 0Z");
}
}
@keyframes zr2-ani-4 {
0% {
d:path("M79 95l0 0l0 322l0 0Z");
}
100% {
d:path("M79 95l802 0l0 322l-802 0Z");
}
}
]]>

</style>
</svg>