<svg width="960" height="480" xmlns="http://www.w3.org/2000/svg" xmlns:xlink="http://www.w3.org/1999/xlink" version="1.1" baseProfile="full" viewBox="0 0 960 480">
<rect width="960" height="480" x="0" y="0" fill="none"></rect>
<path d="M80 416.5L936 416.5" fill="none" pointer-events="visible" stroke="#E0E6F1" class="zr0-cls-0"></path>
<path d="M80 352.5L936 352.5" fill="none" pointer-events="visible" stroke="#E0E6F1" class="zr0-cls-0"></path>
<path d="M80 288.5L936 288.5" fill="none" pointer-events="visible" stroke="#E0E6F1" class="zr0-cls-0"></path>
<path d="M80 224.5L936 224.5" fill="none" pointer-events="visible" stroke="#E0E6F1" class="zr0-cls-0"></path>
<path d="M80 160.5L936 160.5" fill="none" pointer-events="visible" stroke="#E0E6F1" class="zr0-cls-0"></path>
<path d="M80 96.5L936 96.5" fill="none" pointer-events="visible" stroke="#E0E6F1" class="zr0-cls-0"></path>
<text dominant-baseline="central" text-anchor="middle" style="font-size:12px;font-family:Inter, -apple-system, BlinkMacSystemFont, 'Segoe UI', Roboto, sans-serif;" xml:space="preserve" y="-6" transform="translate(80 81)" fill="#57606a">Wall-clock (ms)</text>
<path d="M80 416.5L936 416.5" fill="none" pointer-events="visible" stroke="#6E7079" stroke-linecap="round" class="zr0-cls-0"></path>
<path d="M80.5 416L80.5 421" fill="none" pointer-events="visible" stroke="#6E7079" class="zr0-cls-0"></path>
<path d="M294.5 416L294.5 421" fill="none" pointer-events="visible" stroke="#6E7079" class="zr0-cls-0"></path>
<path d="M508.5 416L508.5 421" fill="none" pointer-events="visible" stroke="#6E7079" class="zr0-cls-0"></path>
<path d="M722.5 416L722.5 421" fill="none" pointer-events="visible" stroke="#6E7079" class="zr0-cls-0"></path>
<path d="M936.5 416L936.5 421" fill="none" pointer-events="visible" stroke="#6E7079" class="zr0-cls-0"></path>
<text dominant-baseline="central" text-anchor="end" style="font-size:12px;font-family:Inter, -apple-system, BlinkMacSystemFont, 'Segoe UI', Roboto, sans-serif;" transform="translate(72 416)" fill="#57606a">0</text>
<text dominant-baseline="central" text-anchor="end" style="font-size:12px;font-family:Inter, -apple-system, BlinkMacSystemFont, 'Segoe UI', Roboto, sans-serif;" transform="translate(72 352)" fill="#57606a">20,000</text>
<text dominant-baseline="central" text-anchor="end" style="font-size:12px;font-family:Inter, -apple-system, BlinkMacSystemFont, 'Segoe UI', Roboto, sans-serif;" transform="translate(72 288)" fill="#57606a">40,000</text>
<text dominant-baseline="central" text-anchor="end" style="font-size:12px;font-family:Inter, -apple-system, BlinkMacSystemFont, 'Segoe UI', Roboto, sans-serif;" transform="translate(72 224)" fill="#57606a">60,000</text>
<text dominant-baseline="central" text-anchor="end" style="font-size:12px;font-family:Inter, -apple-system, BlinkMacSystemFont, 'Segoe UI', Roboto, sans-serif;" transform="translate(72 160)" fill="#57606a">80,000</text>
<text dominant-baseline="central" text-anchor="end" style="font-size:12px;font-family:Inter, -apple-system, BlinkMacSystemFont, 'Segoe UI', Roboto, sans-serif;" transform="translate(72 96)" fill="#57606a">100,000</text>
<text dominant-baseline="central" text-anchor="end" style="font-size:12px;font-family:Inter, -apple-system, BlinkMacSystemFont, 'Segoe UI', Roboto, sans-serif;" transform="matrix(0.966,-0.259,0.259,0.966,187,424)" fill="#57606a">summarization_baseline</text>
<text dominant-baseline="central" text-anchor="end" style="font-size:12px;font-family:Inter, -apple-system, BlinkMacSystemFont, 'Segoe UI', Roboto, sans-serif;" transform="matrix(0.966,-0.259,0.259,0.966,401,424)" fill="#57606a">dpm_projection</text>
<text dominant-baseline="central" text-anchor="end" style="font-size:12px;font-family:Inter, -apple-system, BlinkMacSystemFont, 'Segoe UI', Roboto, sans-serif;" transform="matrix(0.966,-0.259,0.259,0.966,615,424)" fill="#57606a">dpm_checkpoints</text>
<text dominant-baseline="central" text-anchor="end" style="font-size:12px;font-family:Inter, -apple-system, BlinkMacSystemFont, 'Segoe UI', Roboto, sans-serif;" transform="matrix(0.966,-0.259,0.259,0.966,829,424)" fill="#57606a">dpm_checkpoints_prefix_cached</text>
<path d="M159 416l56 0l0 -113.5l-56 0Z" fill="#4477aa" ecmeta_series_index="0" ecmeta_data_index="0" ecmeta_ssr_type="chart" class="zr0-cls-1 zr0-cls-2"></path>
<path d="M373 416l56 0l0 -116.6l-56 0Z" fill="#4477aa" ecmeta_series_index="0" ecmeta_data_index="1" ecmeta_ssr_type="chart" class="zr0-cls-3 zr0-cls-2"></path>
<path d="M587 416l56 0l0 -232.8l-56 0Z" fill="#4477aa" ecmeta_series_index="0" ecmeta_data_index="2" ecmeta_ssr_type="chart" class="zr0-cls-4 zr0-cls-2"></path>
<path d="M801 416l56 0l0 -232.5l-56 0Z" fill="#4477aa" ecmeta_series_index="0" ecmeta_data_index="3" ecmeta_ssr_type="chart" class="zr0-cls-5 zr0-cls-2"></path>
<path d="M159 302.5l56 0l0 0l-56 0Z" fill="#228833" ecmeta_series_index="1" ecmeta_data_index="0" ecmeta_ssr_type="chart" class="zr0-cls-6"></path>
<path d="M373 299.4l56 0l0 -144.1l-56 0Z" fill="#228833" ecmeta_series_index="1" ecmeta_data_index="1" ecmeta_ssr_type="chart" class="zr0-cls-7 zr0-cls-6"></path>
<path d="M587 183.2l56 0l0 -0.5l-56 0Z" fill="#228833" ecmeta_series_index="1" ecmeta_data_index="2" ecmeta_ssr_type="chart" class="zr0-cls-8 zr0-cls-6"></path>
<path d="M801 183.5l56 0l0 -0.5l-56 0Z" fill="#228833" ecmeta_series_index="1" ecmeta_data_index="3" ecmeta_ssr_type="chart" class="zr0-cls-9 zr0-cls-6"></path>
<path d="M159 302.5l56 0l0 0l-56 0Z" fill="#ee7733" ecmeta_series_index="2" ecmeta_data_index="0" ecmeta_ssr_type="chart" class="zr0-cls-10"></path>
<path d="M373 155.3l56 0l0 0l-56 0Z" fill="#ee7733" ecmeta_series_index="2" ecmeta_data_index="1" ecmeta_ssr_type="chart" class="zr0-cls-10"></path>
<path d="M587 182.7l56 0l0 0l-56 0Z" fill="#ee7733" ecmeta_series_index="2" ecmeta_data_index="2" ecmeta_ssr_type="chart" class="zr0-cls-10"></path>
<path d="M801 183.1l56 0l0 -0.4l-56 0Z" fill="#ee7733" ecmeta_series_index="2" ecmeta_data_index="3" ecmeta_ssr_type="chart" class="zr0-cls-11 zr0-cls-10"></path>
<path d="M-5 -5.5l465.2 0l0 25l-465.2 0Z" transform="translate(252.38 61.5)" fill="rgb(0,0,0)" fill-opacity="0" stroke="#ccc" stroke-width="0" class="zr0-cls-0"></path>
<path d="M3.5 0L21.5 0A3.5 3.5 0 0 1 25 3.5L25 10.5A3.5 3.5 0 0 1 21.5 14L3.5 14A3.5 3.5 0 0 1 0 10.5L0 3.5A3.5 3.5 0 0 1 3.5 0" transform="translate(252.38 61.5)" fill="#4477aa" ecmeta_series_index="0" ecmeta_data_index="0" ecmeta_ssr_type="legend" ecmeta_silent="true" class="zr0-cls-0"></path>
<text dominant-baseline="central" text-anchor="start" style="font-size:12px;font-family:Inter, -apple-system, BlinkMacSystemFont, 'Segoe UI', Roboto, sans-serif;" xml:space="preserve" x="30" y="7" transform="translate(252.38 61.5)" fill="#57606a">Prefill+decode (ms)</text>
<path d="M0 0l133.8 0l0 14l-133.8 0Z" transform="translate(252.38 61.5)" fill="none" pointer-events="visible" ecmeta_series_index="0" ecmeta_data_index="0" ecmeta_ssr_type="legend" class="zr0-cls-12"></path>
<path d="M3.5 0L21.5 0A3.5 3.5 0 0 1 25 3.5L25 10.5A3.5 3.5 0 0 1 21.5 14L3.5 14A3.5 3.5 0 0 1 0 10.5L0 3.5A3.5 3.5 0 0 1 3.5 0" transform="translate(396.18 61.5)" fill="#228833" ecmeta_series_index="1" ecmeta_data_index="1" ecmeta_ssr_type="legend" ecmeta_silent="true" class="zr0-cls-0"></path>
<text dominant-baseline="central" text-anchor="start" style="font-size:12px;font-family:Inter, -apple-system, BlinkMacSystemFont, 'Segoe UI', Roboto, sans-serif;" xml:space="preserve" x="30" y="7" transform="translate(396.18 61.5)" fill="#57606a">Checkpoint Put (ms)</text>
<path d="M0 0l139 0l0 14l-139 0Z" transform="translate(396.18 61.5)" fill="none" pointer-events="visible" ecmeta_series_index="1" ecmeta_data_index="1" ecmeta_ssr_type="legend" class="zr0-cls-12"></path>
<path d="M3.5 0L21.5 0A3.5 3.5 0 0 1 25 3.5L25 10.5A3.5 3.5 0 0 1 21.5 14L3.5 14A3.5 3.5 0 0 1 0 10.5L0 3.5A3.5 3.5 0 0 1 3.5 0" transform="translate(545.14 61.5)" fill="#ee7733" ecmeta_series_index="2" ecmeta_data_index="2" ecmeta_ssr_type="legend" ecmeta_silent="true" class="zr0-cls-0"></path>
<text dominant-baseline="central" text-anchor="start" style="font-size:12px;font-family:Inter, -apple-system, BlinkMacSystemFont, 'Segoe UI', Roboto, sans-serif;" xml:space="preserve" x="30" y="7" transform="translate(545.14 61.5)" fill="#57606a">Thaw / cold handoff (ms)</text>
<path d="M0 0l162.5 0l0 14l-162.5 0Z" transform="translate(545.14 61.5)" fill="none" pointer-events="visible" ecmeta_series_index="2" ecmeta_data_index="2" ecmeta_ssr_type="legend" class="zr0-cls-12"></path>
<path d="M-5 -5l412.2 0l0 47l-412.2 0Z" transform="translate(21 17)" fill="rgb(0,0,0)" fill-opacity="0" stroke="#ccc" stroke-width="0" class="zr0-cls-0"></path>
<text dominant-baseline="central" text-anchor="start" style="font-size:16px;font-family:Inter, -apple-system, BlinkMacSystemFont, 'Segoe UI', Roboto, sans-serif;font-weight:600;" xml:space="preserve" y="8" transform="translate(21 17)" fill="#1f2328">Chart E — Wall-clock per decision</text>
<text dominant-baseline="central" text-anchor="start" style="font-size:11px;font-family:Inter, -apple-system, BlinkMacSystemFont, 'Segoe UI', Roboto, sans-serif;font-style:italic;" xml:space="preserve" y="31.5" transform="translate(21 17)" fill="#6e7781">Stacked: prefill+decode + checkpoint persistence + cold-handoff. Smaller is better.</text>
<style ><![CDATA[
.zr0-cls-0:hover {
pointer-events:none;
}
.zr0-cls-1 {
animation:zr0-ani-0 0.8s cubic-bezier(0.65,0,0.35,1) both;
}
.zr0-cls-2:hover {
cursor:pointer;
fill:rgba(74,130,187,1);
}
.zr0-cls-3 {
animation:zr0-ani-1 0.8s cubic-bezier(0.65,0,0.35,1) both;
}
.zr0-cls-4 {
animation:zr0-ani-2 0.8s cubic-bezier(0.65,0,0.35,1) both;
}
.zr0-cls-5 {
animation:zr0-ani-3 0.8s cubic-bezier(0.65,0,0.35,1) both;
}
.zr0-cls-6:hover {
cursor:pointer;
fill:rgba(37,149,56,1);
}
.zr0-cls-7 {
animation:zr0-ani-4 0.8s cubic-bezier(0.65,0,0.35,1) both;
}
.zr0-cls-8 {
animation:zr0-ani-5 0.8s cubic-bezier(0.65,0,0.35,1) both;
}
.zr0-cls-9 {
animation:zr0-ani-6 0.8s cubic-bezier(0.65,0,0.35,1) both;
}
.zr0-cls-10:hover {
cursor:pointer;
fill:rgba(255,130,56,1);
}
.zr0-cls-11 {
animation:zr0-ani-7 0.8s cubic-bezier(0.65,0,0.35,1) both;
}
.zr0-cls-12:hover {
cursor:pointer;
fill:rgba(0,0,0,0);
}
@keyframes zr0-ani-0 {
0% {
d:path("M159 416l56 0l0 0l-56 0Z");
}
100% {
d:path("M159 416l56 0l0 -113.5l-56 0Z");
}
}
@keyframes zr0-ani-1 {
0% {
d:path("M373 416l56 0l0 0l-56 0Z");
}
100% {
d:path("M373 416l56 0l0 -116.6l-56 0Z");
}
}
@keyframes zr0-ani-2 {
0% {
d:path("M587 416l56 0l0 0l-56 0Z");
}
100% {
d:path("M587 416l56 0l0 -232.8l-56 0Z");
}
}
@keyframes zr0-ani-3 {
0% {
d:path("M801 416l56 0l0 0l-56 0Z");
}
100% {
d:path("M801 416l56 0l0 -232.5l-56 0Z");
}
}
@keyframes zr0-ani-4 {
0% {
d:path("M373 299.4l56 0l0 0l-56 0Z");
}
100% {
d:path("M373 299.4l56 0l0 -144.1l-56 0Z");
}
}
@keyframes zr0-ani-5 {
0% {
d:path("M587 183.2l56 0l0 0l-56 0Z");
}
100% {
d:path("M587 183.2l56 0l0 -0.5l-56 0Z");
}
}
@keyframes zr0-ani-6 {
0% {
d:path("M801 183.5l56 0l0 0l-56 0Z");
}
100% {
d:path("M801 183.5l56 0l0 -0.5l-56 0Z");
}
}
@keyframes zr0-ani-7 {
0% {
d:path("M801 183.1l56 0l0 0l-56 0Z");
}
100% {
d:path("M801 183.1l56 0l0 -0.4l-56 0Z");
}
}
]]>

</style>
</svg>