<svg width="960" height="480" xmlns="http://www.w3.org/2000/svg" xmlns:xlink="http://www.w3.org/1999/xlink" version="1.1" baseProfile="full" viewBox="0 0 960 480">
<rect width="960" height="480" x="0" y="0" fill="none"></rect>
<path d="M56 384.5L936 384.5" fill="none" pointer-events="visible" stroke="#E0E6F1" class="zr3-cls-35"></path>
<path d="M56 329.5L936 329.5" fill="none" pointer-events="visible" stroke="#E0E6F1" class="zr3-cls-35"></path>
<path d="M56 274.5L936 274.5" fill="none" pointer-events="visible" stroke="#E0E6F1" class="zr3-cls-35"></path>
<path d="M56 219.5L936 219.5" fill="none" pointer-events="visible" stroke="#E0E6F1" class="zr3-cls-35"></path>
<path d="M56 164.5L936 164.5" fill="none" pointer-events="visible" stroke="#E0E6F1" class="zr3-cls-35"></path>
<path d="M56 109.5L936 109.5" fill="none" pointer-events="visible" stroke="#E0E6F1" class="zr3-cls-35"></path>
<path d="M56 96.5L936 96.5" fill="none" pointer-events="visible" stroke="#E0E6F1" class="zr3-cls-35"></path>
<text dominant-baseline="central" text-anchor="middle" style="font-size:12px;font-family:Inter, -apple-system, BlinkMacSystemFont, 'Segoe UI', Roboto, sans-serif;" y="-6" transform="translate(56 81)" fill="#57606a">decision_score</text>
<path d="M56 384.5L936 384.5" fill="none" pointer-events="visible" stroke="#6E7079" stroke-linecap="round" class="zr3-cls-35"></path>
<path d="M56.5 384L56.5 389" fill="none" pointer-events="visible" stroke="#6E7079" class="zr3-cls-35"></path>
<path d="M349.5 384L349.5 389" fill="none" pointer-events="visible" stroke="#6E7079" class="zr3-cls-35"></path>
<path d="M642.5 384L642.5 389" fill="none" pointer-events="visible" stroke="#6E7079" class="zr3-cls-35"></path>
<path d="M936.5 384L936.5 389" fill="none" pointer-events="visible" stroke="#6E7079" class="zr3-cls-35"></path>
<text dominant-baseline="central" text-anchor="end" style="font-size:12px;font-family:Inter, -apple-system, BlinkMacSystemFont, 'Segoe UI', Roboto, sans-serif;" transform="translate(48 384)" fill="#57606a">0</text>
<text dominant-baseline="central" text-anchor="end" style="font-size:12px;font-family:Inter, -apple-system, BlinkMacSystemFont, 'Segoe UI', Roboto, sans-serif;" transform="translate(48 329.1429)" fill="#57606a">0.2</text>
<text dominant-baseline="central" text-anchor="end" style="font-size:12px;font-family:Inter, -apple-system, BlinkMacSystemFont, 'Segoe UI', Roboto, sans-serif;" transform="translate(48 274.2857)" fill="#57606a">0.4</text>
<text dominant-baseline="central" text-anchor="end" style="font-size:12px;font-family:Inter, -apple-system, BlinkMacSystemFont, 'Segoe UI', Roboto, sans-serif;" transform="translate(48 219.4286)" fill="#57606a">0.6</text>
<text dominant-baseline="central" text-anchor="end" style="font-size:12px;font-family:Inter, -apple-system, BlinkMacSystemFont, 'Segoe UI', Roboto, sans-serif;" transform="translate(48 164.5714)" fill="#57606a">0.8</text>
<text dominant-baseline="central" text-anchor="end" style="font-size:12px;font-family:Inter, -apple-system, BlinkMacSystemFont, 'Segoe UI', Roboto, sans-serif;" transform="translate(48 109.7143)" fill="#57606a">1</text>
<text dominant-baseline="central" text-anchor="end" style="font-size:12px;font-family:Inter, -apple-system, BlinkMacSystemFont, 'Segoe UI', Roboto, sans-serif;" transform="translate(48 96)" fill="#57606a">1.05</text>
<text dominant-baseline="central" text-anchor="end" style="font-size:12px;font-family:Inter, -apple-system, BlinkMacSystemFont, 'Segoe UI', Roboto, sans-serif;" transform="matrix(0.906,-0.423,0.423,0.906,202.6667,392)" fill="#57606a">celery-redis-rce</text>
<text dominant-baseline="central" text-anchor="end" style="font-size:12px;font-family:Inter, -apple-system, BlinkMacSystemFont, 'Segoe UI', Roboto, sans-serif;" transform="matrix(0.906,-0.423,0.423,0.906,496,392)" fill="#57606a">minio-config-exposure</text>
<text dominant-baseline="central" text-anchor="end" style="font-size:12px;font-family:Inter, -apple-system, BlinkMacSystemFont, 'Segoe UI', Roboto, sans-serif;" transform="matrix(0.906,-0.423,0.423,0.906,789.3333,392)" fill="#57606a">sql-injection-admin-delete</text>
<path d="M129.1 384l32 0l0 -68.6l-32 0Z" fill="#aa3377" ecmeta_series_index="0" ecmeta_data_index="0" ecmeta_ssr_type="chart" class="zr3-cls-36 zr3-cls-37"></path>
<path d="M422.4 384l32 0l0 -137.1l-32 0Z" fill="#aa3377" ecmeta_series_index="0" ecmeta_data_index="1" ecmeta_ssr_type="chart" class="zr3-cls-38 zr3-cls-37"></path>
<path d="M715.7 384l32 0l0 -137.1l-32 0Z" fill="#aa3377" ecmeta_series_index="0" ecmeta_data_index="2" ecmeta_ssr_type="chart" class="zr3-cls-39 zr3-cls-37"></path>
<path d="M167.5 384l32 0l0 0l-32 0Z" fill="#4477aa" ecmeta_series_index="1" ecmeta_data_index="0" ecmeta_ssr_type="chart" class="zr3-cls-40"></path>
<path d="M460.8 384l32 0l0 -137.1l-32 0Z" fill="#4477aa" ecmeta_series_index="1" ecmeta_data_index="1" ecmeta_ssr_type="chart" class="zr3-cls-41 zr3-cls-40"></path>
<path d="M754.1 384l32 0l0 -137.1l-32 0Z" fill="#4477aa" ecmeta_series_index="1" ecmeta_data_index="2" ecmeta_ssr_type="chart" class="zr3-cls-42 zr3-cls-40"></path>
<path d="M205.9 384l32 0l0 0l-32 0Z" fill="#228833" ecmeta_series_index="2" ecmeta_data_index="0" ecmeta_ssr_type="chart" class="zr3-cls-43"></path>
<path d="M499.2 384l32 0l0 -137.1l-32 0Z" fill="#228833" ecmeta_series_index="2" ecmeta_data_index="1" ecmeta_ssr_type="chart" class="zr3-cls-44 zr3-cls-43"></path>
<path d="M792.5 384l32 0l0 -137.1l-32 0Z" fill="#228833" ecmeta_series_index="2" ecmeta_data_index="2" ecmeta_ssr_type="chart" class="zr3-cls-45 zr3-cls-43"></path>
<path d="M244.3 384l32 0l0 0l-32 0Z" fill="#ee7733" ecmeta_series_index="3" ecmeta_data_index="0" ecmeta_ssr_type="chart" class="zr3-cls-46"></path>
<path d="M537.6 384l32 0l0 -137.1l-32 0Z" fill="#ee7733" ecmeta_series_index="3" ecmeta_data_index="1" ecmeta_ssr_type="chart" class="zr3-cls-47 zr3-cls-46"></path>
<path d="M830.9 384l32 0l0 -137.1l-32 0Z" fill="#ee7733" ecmeta_series_index="3" ecmeta_data_index="2" ecmeta_ssr_type="chart" class="zr3-cls-48 zr3-cls-46"></path>
<text dominant-baseline="central" text-anchor="middle" style="font-size:10px;font-family:Inter, -apple-system, BlinkMacSystemFont, 'Segoe UI', Roboto, sans-serif;" y="-5" transform="translate(145.0667 310.4286)" fill="#57606a">0.25</text>
<text dominant-baseline="central" text-anchor="middle" style="font-size:10px;font-family:Inter, -apple-system, BlinkMacSystemFont, 'Segoe UI', Roboto, sans-serif;" y="-5" transform="translate(438.4 241.8571)" fill="#57606a">0.50</text>
<text dominant-baseline="central" text-anchor="middle" style="font-size:10px;font-family:Inter, -apple-system, BlinkMacSystemFont, 'Segoe UI', Roboto, sans-serif;" y="-5" transform="translate(731.7333 241.8571)" fill="#57606a">0.50</text>
<text dominant-baseline="central" text-anchor="middle" style="font-size:10px;font-family:Inter, -apple-system, BlinkMacSystemFont, 'Segoe UI', Roboto, sans-serif;" y="-5" transform="translate(183.4667 379)" fill="#57606a">0.00</text>
<text dominant-baseline="central" text-anchor="middle" style="font-size:10px;font-family:Inter, -apple-system, BlinkMacSystemFont, 'Segoe UI', Roboto, sans-serif;" y="-5" transform="translate(476.8 241.8571)" fill="#57606a">0.50</text>
<text dominant-baseline="central" text-anchor="middle" style="font-size:10px;font-family:Inter, -apple-system, BlinkMacSystemFont, 'Segoe UI', Roboto, sans-serif;" y="-5" transform="translate(770.1333 241.8571)" fill="#57606a">0.50</text>
<text dominant-baseline="central" text-anchor="middle" style="font-size:10px;font-family:Inter, -apple-system, BlinkMacSystemFont, 'Segoe UI', Roboto, sans-serif;" y="-5" transform="translate(221.8667 379)" fill="#57606a">0.00</text>
<text dominant-baseline="central" text-anchor="middle" style="font-size:10px;font-family:Inter, -apple-system, BlinkMacSystemFont, 'Segoe UI', Roboto, sans-serif;" y="-5" transform="translate(515.2 241.8571)" fill="#57606a">0.50</text>
<text dominant-baseline="central" text-anchor="middle" style="font-size:10px;font-family:Inter, -apple-system, BlinkMacSystemFont, 'Segoe UI', Roboto, sans-serif;" y="-5" transform="translate(808.5333 241.8571)" fill="#57606a">0.50</text>
<text dominant-baseline="central" text-anchor="middle" style="font-size:10px;font-family:Inter, -apple-system, BlinkMacSystemFont, 'Segoe UI', Roboto, sans-serif;" y="-5" transform="translate(260.2667 379)" fill="#57606a">0.00</text>
<text dominant-baseline="central" text-anchor="middle" style="font-size:10px;font-family:Inter, -apple-system, BlinkMacSystemFont, 'Segoe UI', Roboto, sans-serif;" y="-5" transform="translate(553.6 241.8571)" fill="#57606a">0.50</text>
<text dominant-baseline="central" text-anchor="middle" style="font-size:10px;font-family:Inter, -apple-system, BlinkMacSystemFont, 'Segoe UI', Roboto, sans-serif;" y="-5" transform="translate(846.9333 241.8571)" fill="#57606a">0.50</text>
<path d="M-5 -5.5l641.2 0l0 25l-641.2 0Z" transform="translate(164.4 61.5)" fill="rgb(0,0,0)" fill-opacity="0" stroke="#ccc" stroke-width="0" class="zr3-cls-35"></path>
<path d="M3.5 0L21.5 0A3.5 3.5 0 0 1 25 3.5L25 10.5A3.5 3.5 0 0 1 21.5 14L3.5 14A3.5 3.5 0 0 1 0 10.5L0 3.5A3.5 3.5 0 0 1 3.5 0" transform="translate(164.4 61.5)" fill="#aa3377" ecmeta_series_index="0" ecmeta_data_index="0" ecmeta_ssr_type="legend" ecmeta_silent="true" class="zr3-cls-35"></path>
<text dominant-baseline="central" text-anchor="start" style="font-size:12px;font-family:Inter, -apple-system, BlinkMacSystemFont, 'Segoe UI', Roboto, sans-serif;" x="30" y="7" transform="translate(164.4 61.5)" fill="#57606a">summarization_baseline</text>
<path d="M0 0l159.7 0l0 14l-159.7 0Z" transform="translate(164.4 61.5)" fill="none" pointer-events="visible" ecmeta_series_index="0" ecmeta_data_index="0" ecmeta_ssr_type="legend" class="zr3-cls-49"></path>
<path d="M3.5 0L21.5 0A3.5 3.5 0 0 1 25 3.5L25 10.5A3.5 3.5 0 0 1 21.5 14L3.5 14A3.5 3.5 0 0 1 0 10.5L0 3.5A3.5 3.5 0 0 1 3.5 0" transform="translate(334.12 61.5)" fill="#4477aa" ecmeta_series_index="1" ecmeta_data_index="1" ecmeta_ssr_type="legend" ecmeta_silent="true" class="zr3-cls-35"></path>
<text dominant-baseline="central" text-anchor="start" style="font-size:12px;font-family:Inter, -apple-system, BlinkMacSystemFont, 'Segoe UI', Roboto, sans-serif;" x="30" y="7" transform="translate(334.12 61.5)" fill="#57606a">dpm_projection</text>
<path d="M0 0l112.3 0l0 14l-112.3 0Z" transform="translate(334.12 61.5)" fill="none" pointer-events="visible" ecmeta_series_index="1" ecmeta_data_index="1" ecmeta_ssr_type="legend" class="zr3-cls-49"></path>
<path d="M3.5 0L21.5 0A3.5 3.5 0 0 1 25 3.5L25 10.5A3.5 3.5 0 0 1 21.5 14L3.5 14A3.5 3.5 0 0 1 0 10.5L0 3.5A3.5 3.5 0 0 1 3.5 0" transform="translate(456.44 61.5)" fill="#228833" ecmeta_series_index="2" ecmeta_data_index="2" ecmeta_ssr_type="legend" ecmeta_silent="true" class="zr3-cls-35"></path>
<text dominant-baseline="central" text-anchor="start" style="font-size:12px;font-family:Inter, -apple-system, BlinkMacSystemFont, 'Segoe UI', Roboto, sans-serif;" x="30" y="7" transform="translate(456.44 61.5)" fill="#57606a">dpm_checkpoints</text>
<path d="M0 0l123.7 0l0 14l-123.7 0Z" transform="translate(456.44 61.5)" fill="none" pointer-events="visible" ecmeta_series_index="2" ecmeta_data_index="2" ecmeta_ssr_type="legend" class="zr3-cls-49"></path>
<path d="M3.5 0L21.5 0A3.5 3.5 0 0 1 25 3.5L25 10.5A3.5 3.5 0 0 1 21.5 14L3.5 14A3.5 3.5 0 0 1 0 10.5L0 3.5A3.5 3.5 0 0 1 3.5 0" transform="translate(590.16 61.5)" fill="#ee7733" ecmeta_series_index="3" ecmeta_data_index="3" ecmeta_ssr_type="legend" ecmeta_silent="true" class="zr3-cls-35"></path>
<text dominant-baseline="central" text-anchor="start" style="font-size:12px;font-family:Inter, -apple-system, BlinkMacSystemFont, 'Segoe UI', Roboto, sans-serif;" x="30" y="7" transform="translate(590.16 61.5)" fill="#57606a">dpm_checkpoints_prefix_cached</text>
<path d="M0 0l205.4 0l0 14l-205.4 0Z" transform="translate(590.16 61.5)" fill="none" pointer-events="visible" ecmeta_series_index="3" ecmeta_data_index="3" ecmeta_ssr_type="legend" class="zr3-cls-49"></path>
<path d="M-5 -5l354.5 0l0 47l-354.5 0Z" transform="translate(21 17)" fill="rgb(0,0,0)" fill-opacity="0" stroke="#ccc" stroke-width="0" class="zr3-cls-35"></path>
<text dominant-baseline="central" text-anchor="start" style="font-size:16px;font-family:Inter, -apple-system, BlinkMacSystemFont, 'Segoe UI', Roboto, sans-serif;font-weight:600;" xml:space="preserve" y="8" transform="translate(21 17)" fill="#1f2328">Chart A — Decision score by case and condition</text>
<text dominant-baseline="central" text-anchor="start" style="font-size:11px;font-family:Inter, -apple-system, BlinkMacSystemFont, 'Segoe UI', Roboto, sans-serif;font-style:italic;" xml:space="preserve" y="31.5" transform="translate(21 17)" fill="#6e7781">1.0 = all four probes (FRP, RCS, EDA, CRR) hit; higher is better.</text>
<style ><![CDATA[
.zr3-cls-35:hover {
pointer-events:none;
}
.zr3-cls-36 {
animation:zr3-ani-0 0.8s cubic-bezier(0.65,0,0.35,1) both;
}
.zr3-cls-37:hover {
cursor:pointer;
fill:rgba(187,56,130,1);
}
.zr3-cls-38 {
animation:zr3-ani-1 0.8s cubic-bezier(0.65,0,0.35,1) both;
}
.zr3-cls-39 {
animation:zr3-ani-2 0.8s cubic-bezier(0.65,0,0.35,1) both;
}
.zr3-cls-40:hover {
cursor:pointer;
fill:rgba(74,130,187,1);
}
.zr3-cls-41 {
animation:zr3-ani-3 0.8s cubic-bezier(0.65,0,0.35,1) both;
}
.zr3-cls-42 {
animation:zr3-ani-4 0.8s cubic-bezier(0.65,0,0.35,1) both;
}
.zr3-cls-43:hover {
cursor:pointer;
fill:rgba(37,149,56,1);
}
.zr3-cls-44 {
animation:zr3-ani-5 0.8s cubic-bezier(0.65,0,0.35,1) both;
}
.zr3-cls-45 {
animation:zr3-ani-6 0.8s cubic-bezier(0.65,0,0.35,1) both;
}
.zr3-cls-46:hover {
cursor:pointer;
fill:rgba(255,130,56,1);
}
.zr3-cls-47 {
animation:zr3-ani-7 0.8s cubic-bezier(0.65,0,0.35,1) both;
}
.zr3-cls-48 {
animation:zr3-ani-8 0.8s cubic-bezier(0.65,0,0.35,1) both;
}
.zr3-cls-49:hover {
cursor:pointer;
fill:rgba(0,0,0,0);
}
@keyframes zr3-ani-0 {
0% {
d:path("M129.1 384l32 0l0 0l-32 0Z");
}
100% {
d:path("M129.1 384l32 0l0 -68.6l-32 0Z");
}
}
@keyframes zr3-ani-1 {
0% {
d:path("M422.4 384l32 0l0 0l-32 0Z");
}
100% {
d:path("M422.4 384l32 0l0 -137.1l-32 0Z");
}
}
@keyframes zr3-ani-2 {
0% {
d:path("M715.7 384l32 0l0 0l-32 0Z");
}
100% {
d:path("M715.7 384l32 0l0 -137.1l-32 0Z");
}
}
@keyframes zr3-ani-3 {
0% {
d:path("M460.8 384l32 0l0 0l-32 0Z");
}
100% {
d:path("M460.8 384l32 0l0 -137.1l-32 0Z");
}
}
@keyframes zr3-ani-4 {
0% {
d:path("M754.1 384l32 0l0 0l-32 0Z");
}
100% {
d:path("M754.1 384l32 0l0 -137.1l-32 0Z");
}
}
@keyframes zr3-ani-5 {
0% {
d:path("M499.2 384l32 0l0 0l-32 0Z");
}
100% {
d:path("M499.2 384l32 0l0 -137.1l-32 0Z");
}
}
@keyframes zr3-ani-6 {
0% {
d:path("M792.5 384l32 0l0 0l-32 0Z");
}
100% {
d:path("M792.5 384l32 0l0 -137.1l-32 0Z");
}
}
@keyframes zr3-ani-7 {
0% {
d:path("M537.6 384l32 0l0 0l-32 0Z");
}
100% {
d:path("M537.6 384l32 0l0 -137.1l-32 0Z");
}
}
@keyframes zr3-ani-8 {
0% {
d:path("M830.9 384l32 0l0 0l-32 0Z");
}
100% {
d:path("M830.9 384l32 0l0 -137.1l-32 0Z");
}
}
]]>

</style>
</svg>